<svg width="185" height="48" viewBox="0 0 185 48" fill="none" xmlns="http://www.w3.org/2000/svg">
<path d="M22.9229 43.7857L22.7087 44L21.6375 44.8571C19.0667 46.9524 15.52 48 10.9973 48C7.42673 48 4.68932 47.1905 2.78503 45.5714C0.928342 43.9524 0 41.8095 0 39.1429C0 36.6667 0.975949 34.6667 2.92785 33.1429C4.87975 31.619 7.95041 30.8571 12.1399 30.8571H22.9229V29.7143C22.9229 27.3333 22.304 25.5714 21.0662 24.4286C19.8284 23.2857 17.5433 22.7143 14.2108 22.7143C11.7352 22.7143 9.94992 23.0714 8.85495 23.7857C7.80759 24.5 7.28391 25.6429 7.28391 27.2143V27.4286C7.28391 27.8571 6.87925 28.0714 6.06993 28.0714H2.21374C2.02331 28.0714 1.78527 27.9286 1.49963 27.6429C1.21399 27.3571 1.07116 27.0952 1.07116 26.8571V26.6429C1.07116 23.7381 2.14233 21.4286 4.28466 19.7143C6.42698 18 9.75949 17.1429 14.2822 17.1429C19.519 17.1429 23.3038 18.3095 25.6365 20.6429C28.0169 23.0238 29.2071 26.2381 29.2071 30.2857V45.9286C29.2071 46.1667 29.0642 46.4286 28.7786 46.7143C28.493 47 28.2311 47.1429 27.9931 47.1429H24.9938C24.613 47.1429 24.2321 46.7381 23.8512 45.9286L22.9229 43.7857ZM10.9973 42.6429V42.5714C13.2824 42.5714 15.4962 42.2143 17.6385 41.5C19.7808 40.7857 21.5423 39.881 22.9229 38.7857V35.6429H12.1399C8.18845 35.6429 6.21275 36.8333 6.21275 39.2143C6.21275 41.5 7.80759 42.6429 10.9973 42.6429Z" fill="#336667"/>
<path d="M37.3942 45.9286L37.537 19.0714C37.537 18.8333 37.6799 18.5714 37.9655 18.2857C38.2511 18 38.513 17.8571 38.751 17.8571H41.6789C42.1073 17.8571 42.4644 18.2381 42.75 19L43.7498 21.7143H44.1068L44.4639 21.2857C46.749 18.5238 49.6769 17.1429 53.2474 17.1429C57.7225 17.1429 60.7932 18.8571 62.4594 22.2857H62.6737L63.5306 21.2857C65.8634 18.5238 69.0531 17.1429 73.0997 17.1429C76.337 17.1429 78.884 18.0714 80.7406 19.9286C82.5973 21.7857 83.5257 24.4286 83.5257 27.8571V45.9286C83.5257 46.1667 83.3828 46.4286 83.0972 46.7143C82.8116 47 82.5497 47.1429 82.3117 47.1429H78.4555C78.2175 47.1429 77.9556 47 77.67 46.7143C77.3843 46.4286 77.2415 46.1667 77.2415 45.9286V27.8571C77.2415 24.3333 75.5514 22.5714 72.1713 22.5714C70.267 22.5714 68.5294 23.2143 66.9583 24.5C65.3873 25.7857 64.2447 27.381 63.5306 29.2857V45.9286C63.5306 46.1667 63.3878 46.4286 63.1021 46.7143C62.8165 47 62.5785 47.1429 62.388 47.1429H58.5318C58.3414 47.1429 58.1034 47 57.8177 46.7143C57.5321 46.4286 57.3893 46.1667 57.3893 45.9286V27.8571C57.3893 24.3333 55.6992 22.5714 52.3191 22.5714C50.4148 22.5714 48.6771 23.2143 47.1061 24.5C45.5351 25.7857 44.3925 27.381 43.6784 29.2857V45.9286C43.6784 46.1667 43.5356 46.4286 43.2499 46.7143C42.9643 47 42.7024 47.1429 42.4644 47.1429H38.6082C38.3702 47.1429 38.1083 47 37.8227 46.7143C37.537 46.4286 37.3942 46.1667 37.3942 45.9286Z" fill="#336667"/>
<path d="M92.148 37.3571L95.9327 37.4286C96.6945 37.4286 97.0753 37.7857 97.0753 38.5C97.0753 41.1667 99.908 42.5 105.573 42.5C110.191 42.5 112.5 41.119 112.5 38.3571C112.5 36.6905 110.834 35.6905 107.501 35.3571L100.503 34.6429C96.9325 34.2619 94.4569 33.4524 93.0763 32.2143C91.6481 30.9286 90.934 29.119 90.934 26.7857C90.934 24.2619 92.0766 22.0476 94.3617 20.1429C96.6945 18.1905 99.9556 17.2143 104.145 17.2143C108.668 17.2143 112 18.0714 114.143 19.7857C116.285 21.5 117.356 23.6429 117.356 26.2143C117.356 26.7857 117.07 27.0714 116.499 27.0714H112.357C111.596 27.0714 111.143 26.6429 111 25.7857C110.667 23.7381 108.382 22.7143 104.145 22.7143C101.669 22.7143 99.908 23.1429 98.8606 24C97.7656 24.8571 97.2181 25.8095 97.2181 26.8571C97.2181 28.2857 98.4559 29.1429 100.932 29.4286L107.787 30.1429C112.072 30.5714 114.976 31.4524 116.499 32.7857C118.07 34.1667 118.856 36.0238 118.856 38.3571C118.856 40.881 117.784 43.0952 115.642 45C113.547 46.9048 110.215 47.8571 105.645 47.8571C100.693 47.8571 97.0277 47.0476 94.6473 45.4286C92.2194 43.7619 91.0054 41.4286 91.0054 38.4286C91.0054 37.7143 91.3863 37.3571 92.148 37.3571Z" fill="#336667"/>
<path d="M133.012 19.0714V45.9286C133.012 46.1667 132.869 46.4286 132.583 46.7143C132.298 47 132.036 47.1429 131.798 47.1429H127.942C127.704 47.1429 127.442 47 127.156 46.7143C126.87 46.4286 126.728 46.1667 126.728 45.9286V19.0714C126.728 18.8333 126.87 18.5714 127.156 18.2857C127.442 18 127.704 17.8571 127.942 17.8571H131.798C132.036 17.8571 132.298 18 132.583 18.2857C132.869 18.5714 133.012 18.8333 133.012 19.0714ZM127.156 10.2143C126.394 9.45238 126.013 8.52381 126.013 7.42857C126.013 6.33333 126.394 5.40476 127.156 4.64286C127.918 3.88095 128.846 3.5 129.941 3.5C131.036 3.5 131.964 3.88095 132.726 4.64286C133.488 5.40476 133.869 6.33333 133.869 7.42857C133.869 8.52381 133.488 9.45238 132.726 10.2143C131.964 10.9762 131.036 11.3571 129.941 11.3571C128.846 11.3571 127.918 10.9762 127.156 10.2143Z" fill="#336667"/>
<path d="M147.866 1.21429V45.9286C147.866 46.1667 147.723 46.4286 147.437 46.7143C147.152 47 146.89 47.1429 146.652 47.1429H142.796C142.558 47.1429 142.296 47 142.01 46.7143C141.724 46.4286 141.582 46.1667 141.582 45.9286V1.21429C141.582 0.976192 141.724 0.714286 142.01 0.42857C142.296 0.142857 142.558 0 142.796 0H146.652C146.89 0 147.152 0.142857 147.437 0.42857C147.723 0.714286 147.866 0.976192 147.866 1.21429Z" fill="#336667"/>
<path d="M178.716 43.7857L178.502 44L177.43 44.8571C174.86 46.9524 171.313 48 166.79 48C163.22 48 160.482 47.1905 158.578 45.5714C156.721 43.9524 155.793 41.8095 155.793 39.1429C155.793 36.6667 156.769 34.6667 158.721 33.1429C160.673 31.619 163.743 30.8571 167.933 30.8571H178.716V29.7143C178.716 27.3333 178.097 25.5714 176.859 24.4286C175.621 23.2857 173.336 22.7143 170.004 22.7143C167.528 22.7143 165.743 23.0714 164.648 23.7857C163.601 24.5 163.077 25.6429 163.077 27.2143V27.4286C163.077 27.8571 162.672 28.0714 161.863 28.0714H158.007C157.816 28.0714 157.578 27.9286 157.293 27.6429C157.007 27.3571 156.864 27.0952 156.864 26.8571V26.6429C156.864 23.7381 157.935 21.4286 160.078 19.7143C162.22 18 165.552 17.1429 170.075 17.1429C175.312 17.1429 179.097 18.3095 181.429 20.6429C183.81 23.0238 185 26.2381 185 30.2857V45.9286C185 46.1667 184.857 46.4286 184.572 46.7143C184.286 47 184.024 47.1429 183.786 47.1429H180.787C180.406 47.1429 180.025 46.7381 179.644 45.9286L178.716 43.7857ZM166.79 42.6429V42.5714C169.075 42.5714 171.289 42.2143 173.431 41.5C175.574 40.7857 177.335 39.881 178.716 38.7857V35.6429H167.933C163.981 35.6429 162.006 36.8333 162.006 39.2143C162.006 41.5 163.601 42.6429 166.79 42.6429Z" fill="#336667"/>
</svg>
