<svg width="173" height="46" viewBox="0 0 173 46" fill="none" xmlns="http://www.w3.org/2000/svg">
<path d="M2.72251 16.1334H2.92418C4.70558 13.4109 7.4617 12.0496 11.1925 12.0496C14.184 12.0496 16.5872 13.058 18.4022 15.0746C20.2172 17.0913 21.1247 19.6794 21.1247 22.8388C21.1247 26.2672 20.1163 28.9393 18.0997 30.8551C16.1166 32.7374 13.663 33.6785 10.7388 33.6785C7.51212 33.6785 4.89044 32.6869 2.87376 30.7039H2.77293V45.2239C2.77293 45.2912 2.72251 45.4088 2.62168 45.5769C2.52084 45.7113 2.4032 45.7785 2.26876 45.7785H0.453752C0.352918 45.7785 0.252084 45.7113 0.151251 45.5769C0.0504168 45.4088 0 45.2912 0 45.2239V13.1084C0 13.0412 0.0504168 12.9235 0.151251 12.7555C0.252084 12.621 0.352918 12.5538 0.453752 12.5538H1.81501C2.0839 12.5538 2.23515 12.7723 2.26876 13.2092L2.72251 16.1334ZM18.3517 22.8893H18.4526C18.4526 20.402 17.7467 18.4022 16.3351 16.8897C14.9234 15.3772 13.142 14.6209 10.9909 14.6209C9.07504 14.6209 7.39448 15.1419 5.94919 16.1838C4.4703 17.2594 3.41154 18.6374 2.77293 20.318V27.7797C4.95766 30.0653 7.56253 31.208 10.5875 31.208C12.8395 31.208 14.6881 30.4518 16.1334 28.9393C17.6123 27.3932 18.3517 25.3765 18.3517 22.8893Z" fill="white"/>
<path d="M30.1958 16.3855V16.3351C31.1705 14.957 32.3301 13.8983 33.6745 13.1588C35.0526 12.3857 36.4643 11.9992 37.9096 11.9992C40.0607 11.9992 41.7244 12.6042 42.9008 13.8142C44.0772 15.0578 44.6654 16.7552 44.6654 18.9063V20.0659C44.6654 20.1668 44.615 20.2676 44.5142 20.3684C44.4133 20.4693 44.3125 20.5197 44.2117 20.5197H42.3967C42.2958 20.5197 42.195 20.4693 42.0942 20.3684C41.9933 20.2676 41.9429 20.1668 41.9429 20.0659V19.0576C41.9429 17.6795 41.5564 16.5704 40.7833 15.7301C40.0103 14.9234 38.9515 14.5201 37.6071 14.5201C36.0609 14.5201 34.582 15.0746 33.1704 16.1838C31.7587 17.293 30.7504 18.6542 30.1454 20.2676V32.7206C30.1454 32.8214 30.0949 32.9222 29.9941 33.0231C29.8933 33.1239 29.7924 33.1743 29.6916 33.1743H27.8766C27.7758 33.1743 27.6749 33.1239 27.5741 33.0231C27.4733 32.9222 27.4228 32.8214 27.4228 32.7206V13.1084C27.4228 13.0412 27.4733 12.9235 27.5741 12.7555C27.6749 12.621 27.7758 12.5538 27.8766 12.5538H29.137C29.4395 12.5538 29.6244 12.7891 29.6916 13.2596L30.1958 16.3855Z" fill="white"/>
<path d="M60.0701 12.0496H59.9693C63.1624 12.0496 65.8345 13.0244 67.9856 14.9738C70.1703 16.9569 71.2627 19.5954 71.2627 22.8893C71.2627 26.2168 70.1871 28.8553 68.036 30.8047C65.9185 32.7206 63.2464 33.6785 60.0197 33.6785C56.793 33.6785 54.1209 32.7206 52.0034 30.8047C49.8523 28.8553 48.7768 26.2168 48.7768 22.8893C48.7768 19.5954 49.8691 16.9569 52.0539 14.9738C54.205 13.0244 56.8771 12.0496 60.0701 12.0496ZM59.9693 14.5705L60.0197 14.5201C57.5997 14.5201 55.583 15.2763 53.9697 16.7888C52.3564 18.3013 51.5497 20.318 51.5497 22.8388C51.5497 25.3933 52.3564 27.4268 53.9697 28.9393C55.583 30.4518 57.5997 31.208 60.0197 31.208C62.4061 31.208 64.406 30.4518 66.0193 28.9393C67.6327 27.4268 68.4393 25.4101 68.4393 22.8893C68.4393 20.3684 67.6327 18.3517 66.0193 16.8392C64.406 15.3267 62.3893 14.5705 59.9693 14.5705Z" fill="white"/>
<path d="M95.4411 30.2501V30.3005C93.4581 32.5861 90.786 33.7289 87.4248 33.7289C84.5679 33.7289 82.1479 32.7878 80.1648 30.9056C78.1481 28.9897 77.1398 26.3344 77.1398 22.9397C77.1398 19.8474 78.1313 17.2594 80.1144 15.1755C82.0639 13.1252 84.5847 12.1001 87.6769 12.1001C91.1389 12.1001 93.727 13.3101 95.4411 15.7301H95.542V0.554588C95.542 0.487364 95.5924 0.369724 95.6932 0.201668C95.794 0.0672226 95.8949 0 95.9957 0H97.8107C97.9116 0 98.0124 0.0672226 98.1132 0.201668C98.2141 0.369724 98.2645 0.487364 98.2645 0.554588V32.771C98.2645 32.8718 98.2141 32.9726 98.1132 33.0735C98.0124 33.1743 97.8947 33.2247 97.7603 33.2247H96.399C96.1302 33.2247 95.9453 33.0063 95.8445 32.5693L95.4411 30.2501ZM79.9631 22.9397L79.8119 22.9901C79.8119 25.4773 80.5513 27.494 82.0302 29.0401C83.5091 30.5526 85.3577 31.3089 87.5761 31.3089C90.7692 31.3089 93.3908 29.9812 95.4411 27.326V20.0155C94.7689 18.3686 93.7438 17.0745 92.3657 16.1334C90.9204 15.1587 89.3407 14.6713 87.6265 14.6713C85.4418 14.6713 83.6268 15.4276 82.1815 16.9401C80.7026 18.4862 79.9631 20.4861 79.9631 22.9397Z" fill="white"/>
<path d="M122.057 29.393L122.007 29.4939C121.167 30.7375 120.007 31.7626 118.528 32.5693C117.049 33.3424 115.385 33.7289 113.537 33.7289C110.747 33.7289 108.63 32.939 107.184 31.3593C105.705 29.7124 104.966 27.5444 104.966 24.8555V13.2092C104.966 13.1084 105.016 12.9908 105.117 12.8563C105.218 12.7219 105.319 12.6546 105.42 12.6546H107.235C107.336 12.6546 107.436 12.7219 107.537 12.8563C107.638 12.9908 107.688 13.1084 107.688 13.2092V24.8555C107.688 26.8722 108.193 28.4519 109.201 29.5947C110.209 30.7375 111.655 31.3089 113.537 31.3089C115.419 31.3089 117.133 30.7543 118.679 29.6451C120.293 28.5023 121.436 27.1243 122.108 25.5109V13.1588C122.108 13.0916 122.158 12.9739 122.259 12.8059C122.36 12.6714 122.461 12.6042 122.561 12.6042H124.376C124.477 12.6042 124.578 12.6714 124.679 12.8059C124.78 12.9739 124.83 13.0916 124.83 13.1588V32.771C124.83 32.8718 124.78 32.9726 124.679 33.0735C124.578 33.1743 124.477 33.2247 124.376 33.2247H123.015C122.713 33.2247 122.528 32.9894 122.461 32.5189L122.057 29.393Z" fill="white"/>
<path d="M152.828 19.2593L152.626 19.1584C152.693 19.629 152.727 19.9819 152.727 20.2172C152.727 20.5197 152.559 20.6709 152.223 20.6709H150.408C150.172 20.6709 150.021 20.5197 149.954 20.2172C149.651 18.4358 148.794 17.0409 147.383 16.0326C145.971 15.0242 144.257 14.5201 142.24 14.5201C139.719 14.5201 137.686 15.3267 136.14 16.9401C134.594 18.5198 133.821 20.5029 133.821 22.8893C133.821 25.3429 134.661 27.3596 136.341 28.9393C137.988 30.4854 140.106 31.2585 142.694 31.2585C145.618 31.2585 148.341 29.998 150.861 27.4772C150.996 27.3428 151.147 27.2755 151.315 27.2755C151.483 27.2755 151.635 27.3428 151.769 27.4772L152.626 28.3343C152.794 28.5023 152.878 28.6536 152.878 28.788C152.878 28.9225 152.794 29.1073 152.626 29.3426C150.206 32.2668 146.929 33.7289 142.795 33.7289C139.434 33.7289 136.661 32.7542 134.476 30.8047C132.258 28.8553 131.148 26.2336 131.148 22.9397C131.148 19.713 132.207 17.0913 134.325 15.0746C136.442 13.058 139.131 12.0496 142.391 12.0496C145.282 12.0496 147.652 12.7555 149.5 14.1671C151.349 15.5788 152.458 17.2762 152.828 19.2593Z" fill="white"/>
<path d="M160.032 15.0746L156.806 15.0242C156.705 15.0242 156.604 14.9738 156.503 14.873C156.402 14.7721 156.352 14.6713 156.352 14.5705V12.9571C156.352 12.8563 156.402 12.7555 156.503 12.6546C156.604 12.5538 156.705 12.5034 156.806 12.5034H160.083V7.51211C160.083 7.44489 160.133 7.32725 160.234 7.1592C160.335 7.02475 160.436 6.95753 160.536 6.95753H162.351C162.452 6.95753 162.553 7.02475 162.654 7.1592C162.755 7.32725 162.805 7.44489 162.805 7.51211V12.5034H170.519C170.62 12.5034 170.721 12.5538 170.821 12.6546C170.922 12.7555 170.973 12.8563 170.973 12.9571V14.5705C170.973 14.6713 170.922 14.7721 170.821 14.873C170.721 14.9738 170.62 15.0242 170.519 15.0242H162.805V26.1664C162.805 29.4939 164.217 31.1576 167.04 31.1576C168.284 31.1576 169.494 30.7207 170.67 29.8468C170.805 29.7124 170.956 29.6451 171.124 29.6451C171.258 29.6451 171.376 29.7292 171.477 29.8972L172.183 30.956C172.317 31.124 172.384 31.2753 172.384 31.4097C172.384 31.5442 172.3 31.6954 172.132 31.8635C170.586 33.0735 168.838 33.6785 166.889 33.6785C164.704 33.6785 163.024 33.0735 161.847 31.8635C160.637 30.6199 160.032 28.7376 160.032 26.2168V15.0746Z" fill="white"/>
</svg>
